<svg xmlns="http://www.w3.org/2000/svg" width="1600" height="900" viewBox="0 0 1600 900" role="img" aria-labelledby="title desc">
  <title id="title">Mantiva360 short overview</title>
  <desc id="desc">Mantiva360 brand poster reading Know where your project stands and See what needs attention</desc>
  <defs>
    <linearGradient id="bg" x1="0" y1="0" x2="1" y2="1">
      <stop offset="0" stop-color="#061827"/>
      <stop offset="0.64" stop-color="#0B2239"/>
      <stop offset="1" stop-color="#0E4550"/>
    </linearGradient>
    <filter id="shadow" x="-30%" y="-30%" width="160%" height="160%"><feDropShadow dx="0" dy="18" stdDeviation="20" flood-color="#000" flood-opacity=".28"/></filter>
  </defs>
  <rect width="1600" height="900" fill="url(#bg)"/>
  <circle cx="1360" cy="180" r="420" fill="none" stroke="#4AD2C0" stroke-opacity=".17" stroke-width="2"/>
  <circle cx="1360" cy="180" r="610" fill="none" stroke="#4AD2C0" stroke-opacity=".11" stroke-width="2"/>
  <circle cx="870" cy="900" r="390" fill="none" stroke="#4AD2C0" stroke-opacity=".10" stroke-width="2"/>
  <g transform="translate(90 68) scale(1.06)">
    <path d="M 33.012 3.018 A 29 29 0 0 1 59.733 23.521 L 55.967 30.744 L 49.213 26.737 A 18 18 0 0 0 32.628 14.011 Z" fill="#62B44B"/>
    <path d="M 33.012 3.018 A 29 29 0 0 1 59.733 23.521 L 55.967 30.744 L 49.213 26.737 A 18 18 0 0 0 32.628 14.011 Z" fill="#EAF4FA" transform="rotate(90 32 32)"/>
    <path d="M 33.012 3.018 A 29 29 0 0 1 59.733 23.521 L 55.967 30.744 L 49.213 26.737 A 18 18 0 0 0 32.628 14.011 Z" fill="#FFFFFF" transform="rotate(180 32 32)"/>
    <path d="M 33.012 3.018 A 29 29 0 0 1 59.733 23.521 L 55.967 30.744 L 49.213 26.737 A 18 18 0 0 0 32.628 14.011 Z" fill="#EAF4FA" transform="rotate(270 32 32)"/>
    <text x="82" y="46" fill="#FFFFFF" font-family="Arial,Helvetica,sans-serif" font-size="42" font-weight="700" letter-spacing="-1.2">Mantiva360</text>
  </g>
  <line x1="90" y1="168" x2="1510" y2="168" stroke="#83B9C6" stroke-opacity=".32"/>
  <text x="94" y="250" fill="#65DEC9" font-family="Arial,Helvetica,sans-serif" font-size="24" font-weight="700" letter-spacing="3">PROJECT CONTROL FOR SAP DELIVERY</text>
  <text x="90" y="390" fill="#FFFFFF" font-family="Arial,Helvetica,sans-serif" font-size="84" font-weight="700" letter-spacing="-3">Know where your</text>
  <text x="90" y="482" fill="#FFFFFF" font-family="Arial,Helvetica,sans-serif" font-size="84" font-weight="700" letter-spacing="-3">project stands.</text>
  <text x="94" y="560" fill="#AFC7D4" font-family="Arial,Helvetica,sans-serif" font-size="38" font-weight="400">See what needs attention.</text>
  <g transform="translate(92 660)" filter="url(#shadow)">
    <circle cx="46" cy="46" r="46" fill="#57D6C0"/>
    <path d="M36 27 L68 46 L36 65 Z" fill="#0B2239"/>
    <text x="118" y="58" fill="#FFFFFF" font-family="Arial,Helvetica,sans-serif" font-size="29" font-weight="700">Play short overview</text>
  </g>
  <text x="1510" y="832" text-anchor="end" fill="#92ADBB" font-family="Arial,Helvetica,sans-serif" font-size="24">Data to Progress</text>
</svg>
